<?xml version="1.0" encoding="utf-8"?>
<!-- Generator: Adobe Illustrator 24.0.3, SVG Export Plug-In . SVG Version: 6.00 Build 0)  -->
<svg version="1.1" id="Layer_1" xmlns="http://www.w3.org/2000/svg" xmlns:xlink="http://www.w3.org/1999/xlink" x="0px" y="0px"
	 viewBox="0 0 21.9 21.9" style="enable-background:new 0 0 21.9 21.9;" xml:space="preserve">
<style type="text/css">
	.st0{fill:#FFFFFF;}
</style>
<path class="st0" d="M11,0C4.9,0,0,4.9,0,11s4.9,11,11,11s11-4.9,11-11S17,0,11,0z M18.1,16.8l-1.3,1.3c-0.2,0.2-0.4,0.3-0.6,0.3
	c-0.3,0-0.5-0.1-0.6-0.3L11,13.6l-4.5,4.5c-0.2,0.2-0.4,0.3-0.6,0.3c-0.3,0-0.5-0.1-0.6-0.3l-1.3-1.3c-0.2-0.2-0.3-0.4-0.3-0.6
	c0-0.3,0.1-0.5,0.3-0.6L8.4,11L3.8,6.4C3.7,6.3,3.6,6,3.6,5.8c0-0.3,0.1-0.5,0.3-0.6l1.3-1.3c0.2-0.2,0.4-0.3,0.6-0.3
	c0.3,0,0.5,0.1,0.6,0.3L11,8.4l4.5-4.5c0.2-0.2,0.4-0.3,0.6-0.3c0.3,0,0.5,0.1,0.6,0.3l1.3,1.3c0.2,0.2,0.3,0.4,0.3,0.6
	c0,0.3-0.1,0.5-0.3,0.6L13.6,11l4.5,4.5c0.2,0.2,0.3,0.4,0.3,0.7C18.4,16.4,18.3,16.6,18.1,16.8z"/>
</svg>
