<?xml version="1.0" encoding="utf-8"?>
<!-- Generator: Adobe Illustrator 21.0.0, SVG Export Plug-In . SVG Version: 6.00 Build 0)  -->
<svg version="1.1" id="Слой_1" xmlns="http://www.w3.org/2000/svg" xmlns:xlink="http://www.w3.org/1999/xlink" x="0px" y="0px"
	 viewBox="0 0 151 50" style="enable-background:new 0 0 151 50;" xml:space="preserve">
<style type="text/css">
	.st0{fill:#FFFFFF;}
</style>
<g id="XMLID_492_">
	<path id="XMLID_584_" class="st0" d="M17.3,40.7l-1.9-0.5c-3.2-2.6-4.8-6.9-4.8-12.8v-2.9c0.2-0.1,1-0.3,3.5-0.5l1.1-0.1l-0.8-0.8
		c-0.9-0.8-1.8-1.2-2.8-1.3l-0.9,0.2c0.1-2.3,0.8-6.4,2.2-12.2c1.9-4.4,3-7.1,3.3-8.4l0-0.1l0-0.1c-0.1-0.4-0.4-1.2-1-1.2h-0.3
		l-0.1,0c-0.4,0.1-1,0.2-3.3,7.1c-3.5,6.8-6.1,12.3-7.9,16.5c-1.7,4.4-2.2,5.5-2.4,5.8l-0.7,0.2l1.1,1.1h0.5L2,30.8
		c0.4-0.3,1.1-1,2.3-4.1h0.1c0.8,0,2-0.3,3.7-1c0,3.4,0.3,6.1,0.9,8.1c1.7,5.7,4.2,8.7,7.4,8.7c0,0,0,0,0,0c1.5-0.2,2.6-0.4,2.6-1.2
		v-0.5L17.3,40.7L17.3,40.7z M8.2,22.7c-0.2,0.1-0.7,0.5-2.5,1.1l3.1-6.6C8.5,19.7,8.3,21.5,8.2,22.7z"/>
	<path id="XMLID_585_" class="st0" d="M19.7,31.2c-0.4,0-1.2-0.4-1.6-4.3c0-3.3,0.7-9.4,2-18.1l0-0.1l0-0.1C20,8.2,19.8,7.2,19,7.2
		h-0.6L18,7.6l0,0.2c-1.5,8-2.3,14.4-2.3,19.2l0,1c0.2,1.2,0.6,4.8,3,4.8h0.1l1.6-0.4v-0.7L20,31.2H19.7z"/>
	<path id="XMLID_588_" class="st0" d="M38.8,27l0.2-0.4c3.3-3.7,5.7-6.6,7.1-8.6l0.2-0.2l-0.5-1.1h-0.3c-0.5,0-1.1,0.3-1.8,0.9
		l-6.3,7.3c-0.5-0.8-1-1.4-1.7-1.9l-0.1-0.1h-1.1l-0.7,0.7v0.7l0.1,0.1c0.5,0.5,1,1.1,1.4,1.7L33,26.6c-4,1-6.7,1.5-8,1.5h-0.8
		c0,0-0.1,0-0.1,0l0.8-0.1l0.1,0c3.3-1.5,4.9-3.2,4.9-5.1v-0.4c0-0.6-0.2-1.6-1.9-1.9h-0.7c-0.7,0-1.5,0.3-2.5,1
		c-2.6,2.5-3.8,4.5-3.8,6.1v0.6c0,1.1,0.6,2.5,3.7,2.5c2.8,0,5.7-1.1,8.7-3.2l1.9-1.3c0.1,0.2,0.3,0.4,0.4,0.6L35.4,27
		c-2.7,3-2.9,3.6-2.9,4c0,0.6,0.6,0.8,0.9,0.9l0.1,0l0.1,0c0.5-0.1,1.3-0.5,3.5-3c0.9,1.8,1.8,2.7,2.8,2.7h0.8l0.6-0.6v-0.7
		l-0.1-0.1C40.2,29.3,39.4,28.1,38.8,27z M24.6,25.5c0.9-1.5,1.9-2.4,2.8-2.5v0C26.6,24.2,25.6,25,24.6,25.5z"/>
	<path id="XMLID_591_" class="st0" d="M63.4,34.1l0-3.4l-0.1-1.6c0-2,0.5-4.7,1.6-8.3l0.2-0.6h-0.4c-0.2-0.9-0.9-1-1.2-1
		c-1.2,0-1.8,1.4-2.2,4.6c-0.6,1.8-1.5,3.5-2.7,5.1c0-0.1,0-0.2,0-0.3c0-2,0.2-3.9,0.5-5.7l0-0.1l0-0.1c-0.1-0.9-0.6-1.1-0.9-1.1
		h-0.1c-1.1,0-1.6,1.5-1.8,4.9l-0.7,0.2c-4,1-6.7,1.5-8,1.5h-0.8c0,0-0.1,0-0.1,0l0.8-0.1l0.1,0c3.3-1.5,4.9-3.2,4.9-5.1v-0.4
		c0-0.6-0.2-1.6-1.9-1.9h-0.7c-0.7,0-1.5,0.3-2.5,1c-2.6,2.5-3.8,4.5-3.8,6.1v0.6c0,1.1,0.6,2.5,3.7,2.5c2.8,0,5.7-1.1,8.7-3.2
		l0.3-0.2c0,0.2,0,0.3,0,0.5v0.6c0,2.9,1.2,3.5,2.2,3.5h0.1c0.9,0,1.6-0.5,2.3-1.6v4.1l-4.9,0l-6.2-0.6h-0.1c-0.6,0-1.7,0.2-1.9,1.9
		V36c0,1.9,2.3,4.5,7.1,7.9l8.3,6.3h0.2c1,0,1.3-0.6,1.5-0.9l0-0.1l0-0.6c-0.8-4.6-1.2-8.7-1.3-12c1.5-0.1,4.3-0.8,8.5-2
		c5.2-2.1,5.9-3.1,5.9-3.8v-1.4l-2.1,1.8C75,31.9,72.1,32.9,63.4,34.1z M47.1,25.5C48,23.9,49,23.1,50,23v0
		C49.1,24.2,48.2,25,47.1,25.5z M61.9,46.3l-4-3.1c-4.2-3-6.8-5.3-7.6-6.9l7.4,0.7l3.3-0.1C60.9,39,61.3,42.2,61.9,46.3z"/>
	<path id="XMLID_595_" class="st0" d="M85.7,6.6L85.7,6.6L85.7,6.6c-2.2,0.2-3.6,0.5-4.4,0.9c-2.3,1.1-3.4,2.2-3.4,3.5l0,0.9l0.1,1
		l6.1,10.7c1.6,3.3,3.1,6.7,4.2,10.2c-2.7-0.6-2.7-2-2.7-2.5v-0.8l0.3-1.2l0-0.7h-0.5c-0.7,0-1.1,0.8-1.3,3.2c0,1.9,0.9,4.2,5,4.6
		h0.6c2.1,0,5-1.1,8.9-3.3c5.5-4.4,8.3-8.4,8.3-12.1v-0.3c0-1-0.2-2.2-0.6-3.9C103.4,10.4,96.5,6.9,85.7,6.6z M86.3,10
		c0.9,6.5,1.4,11.9,1.5,16L85,20.1c-4.2-6.8-4.7-8.2-4.7-8.5v-0.1c0.4-1.4,2.2-2.2,5.3-2.4h0.6c0.3,0,0.5,0,0.8,0l-0.6,0.6L86.3,10z
		 M90,22.2c-0.5-10.5-1.7-12.4-2.7-12.9l0,0c3.6,0.1,6.8,0.8,9.7,2c4.9,2.4,7.5,5.6,7.5,9.4c0,2.3-1.4,4.9-4.2,7.8
		c-3.4,3-6.6,4.8-9.5,5.4C90.7,33,90.4,30.3,90,22.2z"/>
	<path id="XMLID_599_" class="st0" d="M116.7,22.8v-0.2c0-0.6-0.3-1.6-2-1.8l-0.1,0l-1.5,0.4l-0.2,0.1c-3.1,2.3-4.6,4.4-4.6,6.3v0.4
		c0,0.9,0.4,2,2.4,2.5l1,0c2.5,0,4.3-1.4,5.4-4.1l0-1.2c0-0.5-0.3-1.2-0.9-2L116.7,22.8z M114.7,25.8L114.7,25.8
		c0,1.1-1.6,1.9-3,2.4h-0.5c-0.4,0-0.5-0.1-0.5-0.3c0.2-0.6,0.3-1,0.5-1.3h1.1v-1.4l1-1.1C113.6,24.1,114.3,24.4,114.7,25.8z"/>
	<path id="XMLID_600_" class="st0" d="M128.8,32c-0.2,0-1.2-0.3-2.2-5.5c0-2.6-0.2-6-2.2-6h-0.1c-0.5,0-1.1,0.4-1.7,2l0.2-2.7v-0.7
		c0-0.9-0.5-1.2-0.8-1.3l-0.6,0c-0.7,0-1.1,0-1.9,12.6c0,1.2,0.4,1.9,1.1,2.3l0.8,0l0.6-0.4l0.1-0.1c0.4-0.6,1-2.7,2-6.3
		c0.7,5.4,1.9,7.9,3.8,7.9h0.3c0.9,0,1.8-0.6,2.5-1.9l0.1-0.1v-1.4l-0.8,0.7C129.1,32,128.8,32,128.8,32z"/>
	<path id="XMLID_601_" class="st0" d="M133.7,20.2c-0.7,0-1.3,0.5-1.8,6.7v1.3c0,1.9,0.9,2.6,1.6,2.9l0.2,0.1l1-0.3l-0.3-3.4l0.6-6
		V21l-0.9-0.9H133.7z"/>
	<path id="XMLID_602_" class="st0" d="M134.6,14.6h-0.4l-0.1,0.1c-0.8,0.6-1.2,1.2-1.2,2v0.6c0,0.6,0.2,1.5,1.9,1.8h0.6l0.1-0.1
		c0.8-0.5,1.2-1.1,1.2-1.8v-0.8l-0.1-0.1C136,15.2,135.3,14.6,134.6,14.6z"/>
	<path id="XMLID_603_" class="st0" d="M149.9,31.2c-0.9,0.8-1.2,0.9-1.2,0.9c-0.2,0-1.2-0.3-2.2-5.5c0-2.6-0.2-6-2.2-6h-0.1
		c-0.5,0-1.1,0.4-1.7,2l0.2-2.7v-0.7c0-0.9-0.5-1.2-0.8-1.3l-0.6,0c-0.7,0-1.1,0-1.9,12.6c0,1.2,0.4,1.9,1.1,2.3l0.8,0l0.6-0.4
		l0.1-0.1c0.4-0.6,1-2.7,2-6.3c0.7,5.4,1.9,7.9,3.8,7.9h0.3c0.9,0,1.8-0.6,2.5-1.9l0.1-0.1v-1.4L149.9,31.2z"/>
</g>
</svg>
